<svg xmlns="http://www.w3.org/2000/svg" xmlns:xlink="http://www.w3.org/1999/xlink" width="185" height="52" fill="none" xmlns:v="https://vecta.io/nano"><g fill="#fff"><path d="M60.064 11.96l-.2.254-.234-.22-.121-.109a19.26 19.26 0 0 0-1.733-1.329c-1.127-.774-2.337-1.422-3.609-1.931l2.612 2.972a41.6 41.6 0 0 1 4.34 5.906A47.63 47.63 0 0 1 73.296 0a35.83 35.83 0 0 0-2.509 1.624C66.73 4.542 63.118 8.023 60.064 11.96zm-.039-5.43c-1.141 0-2.128 1.042-2.627 2.574a14.61 14.61 0 0 1 1.93 1.332l.271.229.091.081.174.164.146-.187 2.223-2.598a2.65 2.65 0 0 0-.883-1.099 2.69 2.69 0 0 0-1.327-.497zm0-.364a1.37 1.37 0 0 0 1.376-1.362 1.37 1.37 0 0 0-1.376-1.362 1.37 1.37 0 0 0-1.376 1.362 1.37 1.37 0 0 0 1.376 1.362z"/><path d="M60.025 6.53c-1.122 0-2.096 1.01-2.6 2.501l.193.13 1.179.861.802.642.091.081.172.162.196-.246 2.15-2.579c-.19-.428-.493-.798-.877-1.071a2.66 2.66 0 0 0-1.305-.482l-.001.001z"/><path d="M60.026 6.53c-1.122 0-2.096 1.01-2.6 2.501l.193.13 1.179.861.802.642.091.081.172.162.196-.246 2.15-2.579c-.191-.428-.493-.798-.877-1.071a2.66 2.66 0 0 0-1.305-.481zm3.545-1.431c.272 0 .539-.079.765-.229s.403-.362.508-.611a1.35 1.35 0 0 0 .079-.787 1.36 1.36 0 0 0-.377-.698 1.38 1.38 0 0 0-.705-.373 1.39 1.39 0 0 0-.796.077c-.252.103-.467.278-.618.502a1.35 1.35 0 0 0-.232.757c0 .361.145.707.403.963s.608.399.973.399zm-7.72 1.046a2.39 2.39 0 0 0-1.052.31c-.321.183-.595.438-.798.745a19.54 19.54 0 0 1 3.019 1.57 4.9 4.9 0 0 1 .776-1.443 2.43 2.43 0 0 0-.825-.83c-.339-.206-.724-.327-1.12-.353z"/><path d="M55.775 5.854c.656 0 1.188-.526 1.188-1.175s-.532-1.175-1.187-1.175-1.187.526-1.187 1.175.532 1.175 1.188 1.175zm6.787 1.88l1.899-2.054c-.273-.143-.577-.218-.886-.22a2.48 2.48 0 0 0-1.136.361 2.46 2.46 0 0 0-.831.847 3.43 3.43 0 0 1 .954 1.066zm8.907-2.766h6.036v2.029h-1.99v8.782h-2.111V6.998h-1.935v-2.03zm6.765 2.815h1.739V8.79a2.16 2.16 0 0 1 .746-.905c.303-.203.66-.31 1.025-.308a1.93 1.93 0 0 1 .825.205l-.632 1.728a1.37 1.37 0 0 0-.585-.176.93.93 0 0 0-.479.175.92.92 0 0 0-.314.398c-.272.717-.381 1.485-.321 2.249l.007.389v3.233h-2.014l.003-7.995zm5.332 0h2.05v3.852a5.24 5.24 0 0 0 .157 1.563 1.36 1.36 0 0 0 .503.678 1.45 1.45 0 0 0 .851.243 1.5 1.5 0 0 0 .86-.24 1.4 1.4 0 0 0 .526-.701 5.39 5.39 0 0 0 .126-1.476V7.783h2.027v3.389a8.24 8.24 0 0 1-.334 2.866 3.14 3.14 0 0 1-1.204 1.446 3.72 3.72 0 0 1-2.02.502 3.61 3.61 0 0 1-2.15-.588 3.09 3.09 0 0 1-1.153-1.638c-.199-.867-.279-1.757-.239-2.645v-3.33l-.001-.002zM97.646 8.9l-1.255 1.242a2.13 2.13 0 0 0-1.39-.75.87.87 0 0 0-.534.145.43.43 0 0 0-.194.356.43.43 0 0 0 .123.297 2.3 2.3 0 0 0 .606.372l.741.368c.621.261 1.173.661 1.611 1.168a2.41 2.41 0 0 1 .424 1.652c-.065.583-.34 1.124-.775 1.523-.589.496-1.348.751-2.121.712a3.4 3.4 0 0 1-1.581-.336 3.36 3.36 0 0 1-1.24-1.026l1.247-1.346a2.87 2.87 0 0 0 .835.666 1.86 1.86 0 0 0 .851.253 1.02 1.02 0 0 0 .645-.191c.073-.049.133-.115.176-.191a.55.55 0 0 0 .07-.249c0-.31-.294-.611-.882-.905l-.684-.335c-1.306-.652-1.959-1.467-1.96-2.446-.003-.307.062-.611.19-.891a2.13 2.13 0 0 1 .549-.73 2.7 2.7 0 0 1 1.891-.671 3.31 3.31 0 0 1 1.487.343 3.26 3.26 0 0 1 1.169.972zm1.99-4.064h2.028v2.947h1.201v1.728h-1.203v6.268h-2.028V9.512h-1.038V7.784h1.038V4.837h.002zm10.279 2.947h2.028v7.996h-2.028v-.846a3.98 3.98 0 0 1-1.19.805 3.37 3.37 0 0 1-1.294.246 3.63 3.63 0 0 1-1.485-.311c-.467-.207-.884-.511-1.223-.89-.763-.808-1.174-1.881-1.142-2.987-.043-1.116.353-2.205 1.106-3.036a3.52 3.52 0 0 1 1.211-.882 3.55 3.55 0 0 1 1.474-.3 3.45 3.45 0 0 1 1.364.272 3.72 3.72 0 0 1 1.179.815v-.882zm-2.131 1.647a2.07 2.07 0 0 0-.852.162 2.04 2.04 0 0 0-.708.496 2.61 2.61 0 0 0 .012 3.392c.196.216.437.387.706.503s.56.173.854.168c.296.008.59-.047.863-.161a2.09 2.09 0 0 0 .72-.498 2.39 2.39 0 0 0 .629-1.722 2.32 2.32 0 0 0-.143-.908 2.33 2.33 0 0 0-.486-.784c-.205-.212-.453-.38-.727-.492a2.14 2.14 0 0 0-.867-.157h-.001zm6.194-1.647h2.028v.919a3.48 3.48 0 0 1 1.153-.845 3.41 3.41 0 0 1 1.386-.279 2.59 2.59 0 0 1 1.366.368c.421.261.761.633.981 1.074a3.26 3.26 0 0 1 1.185-1.074c.473-.247 1.001-.373 1.536-.368a2.86 2.86 0 0 1 1.516.397 2.31 2.31 0 0 1 .941 1.036c.227.669.324 1.375.285 2.08v4.688h-2.042v-4.057c.06-.633-.057-1.27-.339-1.841a1.16 1.16 0 0 0-.449-.372c-.179-.084-.377-.122-.575-.109a1.57 1.57 0 0 0-.933.294c-.281.205-.493.488-.61.813a5.01 5.01 0 0 0-.204 1.664v3.608h-2.041v-3.873a5.39 5.39 0 0 0-.161-1.554 1.4 1.4 0 0 0-.479-.716 1.27 1.27 0 0 0-.776-.236c-.33-.001-.652.103-.918.298a1.77 1.77 0 0 0-.618.835 5.12 5.12 0 0 0-.204 1.691v3.557h-2.028V7.783z"/><path fill-rule="evenodd" d="M128.059 7.74h2.022v8.008h-2.022V7.74z"/></g><path d="M58.361 20.776H46.64c-1.458 0-2.639 1.112-2.639 2.484v11.032c0 1.372 1.182 2.484 2.639 2.484h11.721c1.458 0 2.639-1.112 2.639-2.484V23.261c0-1.372-1.182-2.484-2.639-2.484z" fill="#18a085"/><use xlink:href="#B" fill="#fff"/><path d="M78.361 20.776H66.64c-1.458 0-2.639 1.112-2.639 2.484v11.032c0 1.372 1.182 2.484 2.639 2.484h11.721c1.458 0 2.639-1.112 2.639-2.484V23.261c0-1.372-1.182-2.484-2.639-2.484z" fill="#18a085"/><use xlink:href="#B" x="20" fill="#fff"/><path d="M98.361 20.776H86.64c-1.458 0-2.639 1.112-2.639 2.484v11.032c0 1.372 1.182 2.484 2.639 2.484h11.721c1.458 0 2.639-1.112 2.639-2.484V23.261c0-1.372-1.182-2.484-2.639-2.484z" fill="#18a085"/><use xlink:href="#B" x="40" fill="#fff"/><path d="M118.415 20.627h-11.393c-1.417 0-2.566 1.137-2.566 2.539v11.274c0 1.402 1.149 2.539 2.566 2.539h11.393c1.417 0 2.566-1.137 2.566-2.539V23.166c0-1.402-1.149-2.539-2.566-2.539z" fill="#18a085"/><path d="M112.134 24.064l-1.31 2.628-2.93.423c-.118.018-.228.067-.319.144a.64.64 0 0 0-.196.289.63.63 0 0 0 .16.649l2.121 2.046-.502 2.888a.63.63 0 0 0 .039.346c.045.11.12.205.217.274s.211.111.33.12a.65.65 0 0 0 .345-.071l2.621-1.363 2.621 1.363a.65.65 0 0 0 .675-.049.64.64 0 0 0 .217-.274.63.63 0 0 0 .039-.346l-.501-2.888 2.119-2.046c.085-.083.146-.187.175-.302s.024-.236-.013-.348a.64.64 0 0 0-.196-.289.65.65 0 0 0-.321-.143l-2.93-.423-1.31-2.626c-.053-.106-.135-.195-.237-.258a.65.65 0 0 0-.339-.096c-.119 0-.237.033-.338.096s-.184.152-.237.258z" fill="#fff"/><path d="M138.361 20.776h-11.722c-1.457 0-2.639 1.112-2.639 2.484v11.032c0 1.372 1.182 2.484 2.639 2.484h11.722c1.457 0 2.639-1.112 2.639-2.484V23.261c0-1.372-1.182-2.484-2.639-2.484z" fill="#18a085"/><path d="M131.909 24.124l-1.343 2.586-3.005.416c-.121.017-.235.066-.328.141a.63.63 0 0 0-.201.284c-.038.11-.042.229-.013.342a.62.62 0 0 0 .178.297l2.174 2.013-.514 2.842c-.021.115-.007.233.039.341a.64.64 0 0 0 .223.27.68.68 0 0 0 .339.117.69.69 0 0 0 .353-.07l2.689-1.342 2.688 1.342a.69.69 0 0 0 .353.069c.122-.009.239-.049.339-.118a.63.63 0 0 0 .222-.269c.047-.108.06-.226.04-.34l-.514-2.842 2.174-2.013a.63.63 0 0 0 .179-.298.6.6 0 0 0-.013-.343.63.63 0 0 0-.201-.285.68.68 0 0 0-.329-.141l-3.005-.416-1.344-2.585c-.054-.105-.139-.192-.243-.254a.68.68 0 0 0-.347-.094.69.69 0 0 0-.348.094.63.63 0 0 0-.242.254zM1.703 49.627l3.102-7.018.462.77H1.12l.792-.836v2.09H.328v-2.706h6.171v1.155l-2.86 6.545H1.703zm8.025.132c-.535 0-1.067-.07-1.595-.209-.521-.147-.968-.352-1.342-.616l.704-1.364a3.63 3.63 0 0 0 1.012.506 3.83 3.83 0 0 0 1.177.187c.447 0 .799-.088 1.056-.264s.385-.422.385-.737a.93.93 0 0 0-.154-.528c-.103-.154-.286-.271-.55-.352-.257-.081-.62-.121-1.089-.121H7.363l.396-4.334h4.697v1.43H8.397l.924-.814-.275 3.091-.924-.814H9.75c.763 0 1.375.106 1.837.319.469.205.81.488 1.023.847s.319.766.319 1.221a2.46 2.46 0 0 1-.341 1.265c-.227.381-.579.693-1.056.935-.469.235-1.071.352-1.804.352zm3.99 1.562l.726-2.64.242.99a1.13 1.13 0 0 1-.781-.275c-.198-.183-.297-.436-.297-.759s.103-.579.308-.77a1.07 1.07 0 0 1 .759-.286c.308 0 .561.099.759.297.198.191.297.444.297.759 0 .095-.007.191-.022.286-.015.088-.044.198-.088.33a4.16 4.16 0 0 1-.187.484l-.627 1.584h-1.089zm5.431-1.562c-.535 0-1.067-.07-1.595-.209-.521-.147-.968-.352-1.342-.616l.704-1.364a3.63 3.63 0 0 0 1.012.506 3.83 3.83 0 0 0 1.177.187c.447 0 .799-.088 1.056-.264s.385-.422.385-.737a.93.93 0 0 0-.154-.528c-.103-.154-.286-.271-.55-.352-.257-.081-.62-.121-1.089-.121h-1.969l.396-4.334h4.697v1.43h-4.059l.924-.814-.275 3.091-.924-.814h1.628c.763 0 1.375.106 1.837.319.469.205.81.488 1.023.847s.319.766.319 1.221a2.46 2.46 0 0 1-.341 1.265c-.227.381-.579.693-1.056.935-.469.235-1.071.352-1.804.352zm5.112-.132v-7.04l.77.77h-2.31v-1.43h3.322v7.7h-1.782zm5.826-7.832c.711 0 1.324.147 1.837.44s.909.722 1.188 1.287c.279.557.418 1.254.418 2.09 0 .887-.169 1.639-.506 2.255-.33.616-.788 1.085-1.375 1.408s-1.269.484-2.046.484c-.403 0-.792-.044-1.166-.132s-.697-.22-.968-.396l.66-1.309c.213.147.44.249.682.308a3.67 3.67 0 0 0 .759.077c.66 0 1.184-.202 1.573-.605.396-.403.594-1.001.594-1.793l-.011-.44a3.64 3.64 0 0 0-.055-.484l.484.462a2.02 2.02 0 0 1-.528.726 2.45 2.45 0 0 1-.792.44c-.301.095-.638.143-1.012.143-.491 0-.939-.099-1.342-.297a2.46 2.46 0 0 1-.957-.836c-.235-.359-.352-.781-.352-1.265 0-.528.128-.983.385-1.364.264-.381.616-.675 1.056-.88a3.39 3.39 0 0 1 1.474-.319zm.11 1.331c-.257 0-.48.048-.671.143a1.03 1.03 0 0 0-.451.396c-.11.169-.165.37-.165.605 0 .352.117.634.352.847.242.205.561.308.957.308.257 0 .484-.048.682-.143a1.15 1.15 0 0 0 .473-.418c.11-.176.165-.374.165-.594s-.055-.414-.165-.583c-.103-.176-.253-.312-.451-.407-.198-.103-.44-.154-.726-.154zm7.787 6.501v-7.7h3.333c.689 0 1.283.114 1.782.341.499.22.884.539 1.155.957s.407.917.407 1.496c0 .572-.136 1.067-.407 1.485a2.6 2.6 0 0 1-1.155.946c-.499.22-1.093.33-1.782.33h-2.343l.792-.781v2.926h-1.782zm4.895 0l-1.925-2.794h1.903l1.947 2.794h-1.925zm-3.113-2.728l-.792-.836h2.244c.55 0 .961-.117 1.232-.352.271-.242.407-.572.407-.99 0-.425-.136-.755-.407-.99s-.682-.352-1.232-.352h-2.244l.792-.847v4.367zm9.123 2.816c-.675 0-1.269-.132-1.782-.396a2.94 2.94 0 0 1-1.177-1.078c-.279-.462-.418-.986-.418-1.573 0-.594.136-1.118.407-1.573a2.91 2.91 0 0 1 1.133-1.078 3.28 3.28 0 0 1 1.617-.396 3.24 3.24 0 0 1 1.562.374 2.7 2.7 0 0 1 1.111 1.056c.271.455.407 1.001.407 1.639l-.011.231-.022.231h-4.807v-1.001h3.905l-.66.297a1.64 1.64 0 0 0-.187-.803c-.125-.227-.297-.403-.517-.528-.22-.132-.477-.198-.77-.198s-.554.066-.781.198a1.31 1.31 0 0 0-.517.539c-.125.227-.187.499-.187.814v.264a1.73 1.73 0 0 0 .209.858 1.49 1.49 0 0 0 .605.561c.264.125.572.187.924.187.315 0 .59-.048.825-.143.242-.095.462-.238.66-.429l.913.99a2.71 2.71 0 0 1-1.023.715c-.411.161-.884.242-1.419.242zm5.501-.088l-2.486-5.918h1.771l2.068 5.093h-.88l2.145-5.093h1.65l-2.497 5.918H54.39zm4.968 0v-5.918h1.716v5.918h-1.716zm.858-6.743c-.315 0-.572-.092-.77-.275a.89.89 0 0 1-.297-.682.89.89 0 0 1 .297-.682c.198-.183.455-.275.77-.275s.572.088.77.264c.198.169.297.389.297.66a.95.95 0 0 1-.297.715c-.191.183-.447.275-.77.275zm5.388 6.831c-.675 0-1.269-.132-1.782-.396a2.94 2.94 0 0 1-1.177-1.078c-.279-.462-.418-.986-.418-1.573 0-.594.136-1.118.407-1.573a2.91 2.91 0 0 1 1.133-1.078c.477-.264 1.016-.396 1.617-.396a3.24 3.24 0 0 1 1.562.374 2.7 2.7 0 0 1 1.111 1.056c.271.455.407 1.001.407 1.639l-.011.231-.022.231h-4.807v-1.001h3.905l-.66.297a1.64 1.64 0 0 0-.187-.803c-.125-.227-.297-.403-.517-.528-.22-.132-.477-.198-.77-.198s-.554.066-.781.198a1.31 1.31 0 0 0-.517.539 1.67 1.67 0 0 0-.187.814v.264a1.73 1.73 0 0 0 .209.858 1.49 1.49 0 0 0 .605.561c.264.125.572.187.924.187.315 0 .59-.048.825-.143.242-.095.462-.238.66-.429l.913.99a2.71 2.71 0 0 1-1.023.715c-.411.161-.884.242-1.419.242zm5.248-.088l-2.134-5.918h1.617l1.771 5.093h-.77l1.848-5.093h1.452l1.793 5.093h-.77l1.826-5.093h1.518l-2.145 5.918h-1.661l-1.573-4.367h.506l-1.628 4.367h-1.65zm10.854.088c-.506 0-.994-.059-1.463-.176-.462-.125-.829-.279-1.1-.462l.572-1.232a3.96 3.96 0 0 0 .957.418c.374.103.741.154 1.1.154.396 0 .675-.048.836-.143.169-.095.253-.227.253-.396 0-.139-.066-.242-.198-.308a1.53 1.53 0 0 0-.506-.165l-.704-.11-.759-.143c-.257-.066-.491-.161-.704-.286a1.48 1.48 0 0 1-.517-.506c-.125-.213-.187-.488-.187-.825 0-.374.106-.704.319-.99.22-.286.535-.51.946-.671.411-.169.902-.253 1.474-.253a5.97 5.97 0 0 1 1.232.132 3.34 3.34 0 0 1 1.045.385l-.572 1.221c-.286-.169-.576-.282-.869-.341-.286-.066-.565-.099-.836-.099-.381 0-.66.051-.836.154s-.264.235-.264.396c0 .147.062.257.187.33a1.85 1.85 0 0 0 .517.176l.693.121a5.69 5.69 0 0 1 .77.143 2.53 2.53 0 0 1 .693.286c.213.117.385.282.517.495.132.205.198.477.198.814a1.56 1.56 0 0 1-.33.979c-.22.279-.539.499-.957.66-.411.161-.913.242-1.507.242zm6.748-2.497v-1.375h3.113v1.375h-3.113zm9.921-5.423c.711 0 1.324.147 1.837.44s.91.722 1.188 1.287c.279.557.418 1.254.418 2.09 0 .887-.168 1.639-.506 2.255-.33.616-.788 1.085-1.375 1.408s-1.269.484-2.046.484c-.403 0-.792-.044-1.166-.132s-.697-.22-.968-.396l.66-1.309c.213.147.44.249.682.308a3.67 3.67 0 0 0 .759.077c.66 0 1.184-.202 1.573-.605.396-.403.594-1.001.594-1.793l-.011-.44c-.007-.161-.025-.323-.055-.484l.484.462c-.124.286-.3.528-.528.726a2.45 2.45 0 0 1-.792.44c-.301.095-.638.143-1.012.143-.491 0-.939-.099-1.342-.297a2.46 2.46 0 0 1-.957-.836c-.235-.359-.352-.781-.352-1.265 0-.528.128-.983.385-1.364.264-.381.616-.675 1.056-.88a3.39 3.39 0 0 1 1.474-.319zm.11 1.331c-.257 0-.48.048-.671.143a1.03 1.03 0 0 0-.451.396c-.11.169-.165.37-.165.605 0 .352.117.634.352.847.242.205.561.308.957.308.257 0 .484-.048.682-.143a1.15 1.15 0 0 0 .473-.418c.11-.176.165-.374.165-.594s-.055-.414-.165-.583c-.103-.176-.253-.312-.451-.407-.198-.103-.44-.154-.726-.154zm6.894-1.331c.711 0 1.324.147 1.837.44s.909.722 1.188 1.287c.279.557.418 1.254.418 2.09 0 .887-.169 1.639-.506 2.255-.33.616-.788 1.085-1.375 1.408s-1.269.484-2.046.484c-.403 0-.792-.044-1.166-.132s-.697-.22-.968-.396l.66-1.309a2.04 2.04 0 0 0 .682.308 3.67 3.67 0 0 0 .759.077c.66 0 1.184-.202 1.573-.605.396-.403.594-1.001.594-1.793l-.011-.44a3.62 3.62 0 0 0-.055-.484l.484.462c-.125.286-.301.528-.528.726-.227.191-.491.337-.792.44a3.34 3.34 0 0 1-1.012.143c-.491 0-.939-.099-1.342-.297a2.46 2.46 0 0 1-.957-.836c-.235-.359-.352-.781-.352-1.265 0-.528.128-.983.385-1.364.264-.381.616-.675 1.056-.88a3.39 3.39 0 0 1 1.474-.319zm.11 1.331c-.257 0-.48.048-.671.143-.191.088-.341.22-.451.396-.11.169-.165.37-.165.605 0 .352.117.634.352.847.242.205.561.308.957.308.257 0 .484-.048.682-.143a1.15 1.15 0 0 0 .473-.418c.11-.176.165-.374.165-.594s-.055-.414-.165-.583a1.02 1.02 0 0 0-.451-.407c-.198-.103-.44-.154-.726-.154zm5.06 6.589c-.293 0-.546-.099-.759-.297-.205-.205-.308-.466-.308-.781s.103-.568.308-.759c.213-.198.466-.297.759-.297a1.05 1.05 0 0 1 .759.297c.206.191.308.444.308.759s-.102.576-.308.781a1.05 1.05 0 0 1-.759.297zm4.573-7.92c.712 0 1.324.147 1.837.44s.91.722 1.188 1.287c.279.557.418 1.254.418 2.09 0 .887-.168 1.639-.506 2.255-.33.616-.788 1.085-1.375 1.408s-1.268.484-2.046.484c-.403 0-.792-.044-1.166-.132s-.696-.22-.968-.396l.66-1.309a2.04 2.04 0 0 0 .682.308 3.67 3.67 0 0 0 .759.077c.66 0 1.185-.202 1.573-.605.396-.403.594-1.001.594-1.793l-.011-.44c-.007-.161-.025-.323-.055-.484l.484.462c-.124.286-.3.528-.528.726-.227.191-.491.337-.792.44-.3.095-.638.143-1.012.143-.491 0-.938-.099-1.342-.297a2.46 2.46 0 0 1-.957-.836c-.234-.359-.352-.781-.352-1.265 0-.528.129-.983.385-1.364.264-.381.616-.675 1.056-.88.448-.213.939-.319 1.474-.319zm.11 1.331a1.49 1.49 0 0 0-.671.143 1.03 1.03 0 0 0-.451.396c-.11.169-.165.37-.165.605 0 .352.118.634.352.847.242.205.561.308.957.308.257 0 .484-.048.682-.143a1.14 1.14 0 0 0 .473-.418c.11-.176.165-.374.165-.594s-.055-.414-.165-.583a1.01 1.01 0 0 0-.451-.407c-.198-.103-.44-.154-.726-.154zm7.488 6.633a3.16 3.16 0 0 1-1.694-.462c-.498-.315-.891-.77-1.177-1.364s-.429-1.313-.429-2.156.143-1.562.429-2.156.679-1.045 1.177-1.353c.499-.315 1.064-.473 1.694-.473.638 0 1.203.158 1.694.473.499.308.891.759 1.177 1.353s.429 1.313.429 2.156-.143 1.562-.429 2.156-.678 1.049-1.177 1.364c-.491.308-1.056.462-1.694.462zm0-1.507c.301 0 .561-.084.781-.253.228-.169.404-.436.528-.803.132-.367.198-.84.198-1.419s-.066-1.052-.198-1.419c-.124-.367-.3-.634-.528-.803-.22-.169-.48-.253-.781-.253a1.28 1.28 0 0 0-.781.253c-.22.169-.396.436-.528.803-.124.367-.187.84-.187 1.419s.063 1.052.187 1.419c.132.367.308.634.528.803.228.169.488.253.781.253zm5.277 1.375l5.258-7.7h1.309l-5.258 7.7h-1.309zm.671-3.542c-.374 0-.704-.084-.99-.253-.286-.176-.513-.422-.682-.737-.161-.323-.242-.7-.242-1.133s.081-.807.242-1.122c.169-.315.396-.561.682-.737a1.85 1.85 0 0 1 .99-.264 1.85 1.85 0 0 1 .99.264c.286.176.51.422.671.737s.242.689.242 1.122-.081.81-.242 1.133c-.161.315-.385.561-.671.737-.286.169-.616.253-.99.253zm0-.902a.69.69 0 0 0 .583-.297c.147-.205.22-.513.22-.924s-.073-.715-.22-.913c-.147-.205-.341-.308-.583-.308a.7.7 0 0 0-.583.308c-.147.198-.22.502-.22.913 0 .403.073.708.22.913a.7.7 0 0 0 .583.308zm5.225 4.532c-.367 0-.697-.084-.99-.253-.286-.176-.51-.422-.671-.737-.161-.323-.242-.7-.242-1.133s.081-.807.242-1.122.385-.561.671-.737c.293-.176.623-.264.99-.264.381 0 .715.088 1.001.264s.51.422.671.737.242.689.242 1.122-.081.81-.242 1.133c-.161.315-.385.561-.671.737-.286.169-.62.253-1.001.253zm0-.902a.69.69 0 0 0 .583-.297c.147-.205.22-.513.22-.924 0-.403-.073-.708-.22-.913s-.341-.308-.583-.308a.7.7 0 0 0-.583.308c-.147.198-.22.502-.22.913s.073.719.22.924c.154.198.348.297.583.297zm6.239.814v-7.7h3.333c.689 0 1.283.114 1.782.341.498.22.883.539 1.155.957s.407.917.407 1.496c0 .572-.136 1.067-.407 1.485s-.657.741-1.155.968c-.499.22-1.093.33-1.782.33h-2.343l.792-.803v2.926h-1.782zm1.782-2.728l-.792-.847h2.244c.55 0 .96-.117 1.232-.352s.407-.561.407-.979c0-.425-.136-.755-.407-.99s-.682-.352-1.232-.352h-2.244l.792-.847v4.367zm8.851 2.816c-.63 0-1.191-.132-1.683-.396a3.08 3.08 0 0 1-1.155-1.078 2.99 2.99 0 0 1-.418-1.573c0-.594.14-1.118.418-1.573a2.97 2.97 0 0 1 1.155-1.078c.492-.264 1.053-.396 1.683-.396.624 0 1.181.132 1.672.396a2.89 2.89 0 0 1 1.155 1.067c.279.455.418.983.418 1.584 0 .587-.139 1.111-.418 1.573-.278.455-.663.814-1.155 1.078s-1.048.396-1.672.396zm0-1.408c.286 0 .543-.066.77-.198a1.42 1.42 0 0 0 .539-.561c.132-.249.198-.543.198-.88 0-.345-.066-.638-.198-.88s-.311-.429-.539-.561-.484-.198-.77-.198-.542.066-.77.198-.41.319-.55.561c-.132.242-.198.535-.198.88 0 .337.066.631.198.88.14.242.323.429.55.561s.484.198.77.198zm6.383 1.408a6.01 6.01 0 0 1-1.463-.176c-.462-.125-.828-.279-1.1-.462l.572-1.232c.272.169.591.308.957.418.374.103.741.154 1.1.154.396 0 .675-.048.836-.143.169-.095.253-.227.253-.396 0-.139-.066-.242-.198-.308-.124-.073-.293-.128-.506-.165l-.704-.11-.759-.143a2.74 2.74 0 0 1-.704-.286 1.49 1.49 0 0 1-.517-.506c-.124-.213-.187-.488-.187-.825a1.62 1.62 0 0 1 .319-.99c.22-.286.536-.51.946-.671.411-.169.902-.253 1.474-.253.404 0 .814.044 1.232.132s.767.216 1.045.385l-.572 1.221c-.286-.169-.575-.282-.869-.341-.286-.066-.564-.099-.836-.099-.381 0-.66.051-.836.154s-.264.235-.264.396a.36.36 0 0 0 .187.33 1.85 1.85 0 0 0 .517.176l.693.121a5.66 5.66 0 0 1 .77.143 2.53 2.53 0 0 1 .693.286 1.39 1.39 0 0 1 .517.495c.132.205.198.477.198.814a1.56 1.56 0 0 1-.33.979c-.22.279-.539.499-.957.66-.41.161-.913.242-1.507.242zm3.853-.088v-5.918h1.716v5.918H161zm.858-6.743c-.315 0-.572-.092-.77-.275a.89.89 0 0 1-.297-.682.89.89 0 0 1 .297-.682c.198-.183.455-.275.77-.275s.572.088.77.264c.198.169.297.389.297.66a.95.95 0 0 1-.297.715c-.191.183-.447.275-.77.275zm4.871 6.831c-.697 0-1.24-.176-1.628-.528-.389-.359-.583-.891-.583-1.595V42.4h1.716v5.17c0 .249.066.444.198.583.132.132.311.198.539.198.271 0 .502-.073.693-.22l.462 1.21c-.176.125-.389.22-.638.286a3.21 3.21 0 0 1-.759.088zm-3.124-4.554v-1.32h4.103v1.32h-4.103zm5.484 4.466v-5.918h1.716v5.918h-1.716zm.858-6.743c-.315 0-.572-.092-.77-.275a.89.89 0 0 1-.297-.682.89.89 0 0 1 .297-.682c.198-.183.455-.275.77-.275s.572.088.77.264c.198.169.297.389.297.66a.95.95 0 0 1-.297.715c-.191.183-.447.275-.77.275zm4.056 6.743l-2.486-5.918h1.771l2.068 5.093h-.88l2.145-5.093h1.65l-2.497 5.918h-1.771zm7.745.088c-.675 0-1.269-.132-1.782-.396-.506-.264-.899-.623-1.177-1.078-.279-.462-.418-.986-.418-1.573 0-.594.135-1.118.407-1.573.278-.462.656-.821 1.133-1.078.476-.264 1.015-.396 1.617-.396a3.24 3.24 0 0 1 1.562.374 2.71 2.71 0 0 1 1.111 1.056c.271.455.407 1.001.407 1.639l-.011.231-.022.231h-4.807v-1.001h3.905l-.66.297c0-.308-.063-.576-.187-.803a1.33 1.33 0 0 0-.517-.528c-.22-.132-.477-.198-.77-.198s-.554.066-.781.198c-.22.125-.393.304-.517.539-.125.227-.187.499-.187.814v.264a1.72 1.72 0 0 0 .209.858c.146.242.348.429.605.561.264.125.572.187.924.187.315 0 .59-.048.825-.143.242-.095.462-.238.66-.429l.913.99a2.72 2.72 0 0 1-1.023.715c-.411.161-.884.242-1.419.242z" fill="#fff"/><defs ><path id="B" d="M51.909 24.124l-1.343 2.586-3.005.416c-.121.017-.234.066-.328.141s-.163.174-.201.284-.042.229-.013.342a.62.62 0 0 0 .178.297l2.174 2.013-.514 2.842c-.021.115-.007.233.039.341a.63.63 0 0 0 .223.27.68.68 0 0 0 .339.117.69.69 0 0 0 .353-.07l2.688-1.342 2.688 1.342a.69.69 0 0 0 .353.069.68.68 0 0 0 .339-.118.63.63 0 0 0 .223-.269c.046-.108.06-.226.04-.34l-.514-2.842 2.173-2.013a.62.62 0 0 0 .179-.298c.029-.113.025-.232-.013-.343s-.108-.21-.201-.285-.208-.124-.329-.141l-3.005-.416-1.344-2.585a.64.64 0 0 0-.243-.254c-.104-.061-.225-.094-.347-.094s-.243.033-.347.094a.64.64 0 0 0-.243.254z"/></defs></svg>